<svg xmlns="http://www.w3.org/2000/svg" viewBox="0 0 100 100">
<!-- SVG created with Arrow, by QuiverAI (https://quiver.ai) -->
  <style type="text/css">.cls-0 {fill:#41A2E5;}</style>
  <path class="cls-0" d="m93.8 43.5v-6.9h-12.7c-0.7 0.9-1.3 1.9-1.7 3.2h11.5v40.8c-1.8-0.2-3.6-0.2-5.9-0.2-8.8 0-15.3 1.2-20.8 2.9-4.7 1.5-10 3.7-14.1 6.9-4-2.8-8.8-5.2-14-6.7-5.4-1.7-12.2-3.1-21.1-3.1-1.8 0-3.5 0.1-5.6 0.2v-40.8h13.1c-0.5-1-0.9-2-1.3-3.2h-15v6.9c-1.2 0-2.6 1.4-2.6 3v45.8c0 1.7 1.4 3.2 3 3.2h35.9c1.4 1.6 3.6 3.3 7.5 3.3s6.2-1.3 7.6-3.3h36c1.7 0 3-1.5 3-3.2v-45.9c0-1.5-1.6-2.9-2.8-2.9zm-84.7 40.9c1.5-0.2 3.4-0.2 5.9-0.2 8.6 0 17.9 1.6 24.9 4.8 0.5 0.2 0.7 0.4 1.2 0.6h-32v-5.2zm81.9 5.2h-32.1c7.2-3.1 15.7-5.4 26-5.4 2.2 0 4 0 6.1 0.2v5.2z"/>
  <path class="cls-0" d="m13.3 44.2v2.7c7.6 0 13.2 0.2 20.5 1.6 1.6 0.3 3.3 0.9 5.2 1.4l0.2-0.1v-0.1h0.1c-4.4-0.6-8.2-2-11.8-4.9-4.6-0.4-8.4-0.7-14.2-0.6z"/>
  <path class="cls-0" d="m13.3 51.2v2.9c6.4 0 11.3 0.3 17.9 1.4l3.7-2c-6-1.5-11.6-2.3-21.6-2.3z"/>
  <path class="cls-0" d="m13.3 58.4v2.8h3.6c0.5-0.8 1.2-1.5 2-1.7 1-0.3 2.2-0.6 3.7-0.9-2.7-0.1-6-0.2-9.3-0.2z"/>
  <path class="cls-0" d="m13.3 65.5v3.1c3.6 0 6.3 0.1 10.8 0.4-1.6-0.8-3.5-1.9-5.3-3.4h-5.5z"/>
  <path class="cls-0" d="m13.3 73.2v3c14.3-0.2 24.6 1.7 34.3 8.2v-2.6c-7-4.9-16.2-8.6-34.3-8.6z"/>
  <path class="cls-0" d="m36.1 71.5c4.3 1.4 8.5 3.1 11.5 5.5v-2.4c-1.8-1.4-4.5-3.1-7.7-4.6-1 0.6-2.3 1.1-3.8 1.5z"/>
  <path class="cls-0" d="m43.8 66.7 3.8 2.5v-2.7l-0.6-0.4h-2.4l-0.8 0.6z"/>
  <path class="cls-0" d="m52.1 66.4v2.9c7-4.3 16.3-8.1 34.8-8.1v-2.8c-7.8-0.1-13.8 0.4-21.1 2.1-3.9 2.5-7.7 3.9-11.9 4.7l-1.8 1.2z"/>
  <path class="cls-0" d="m52.1 74.5v2.6c6.3-4.1 15.3-8.5 34.8-8.5v-3.1c-13.9-0.1-24.3 1.9-34.8 9z"/>
  <path class="cls-0" d="m52.1 81.8v2.6c6.3-4 14.8-8.2 34.8-8.2v-2.9c-14.3-0.1-25.8 2.5-34.8 8.5z"/>
  <path class="cls-0" d="m77.7 44.3-1.1 2.9c2.5-0.2 5.5-0.3 10.3-0.3v-2.8c-3.5 0-6.4 0-9.2 0.2z"/>
  <path class="cls-0" d="m74.4 51.8-2.3 3c4.1-0.4 7.4-0.7 14.8-0.7v-2.9c-4.5 0-8.5 0-12.5 0.5v0.1z"/>
  <path class="cls-0" d="m34 14.7c7.9 3.1 14.4 4 19.4 7.5 3 1.9 5.2 4.4 6.6 6.7l0.8-1.1c-0.7-5-4.2-9.4-9.4-12.4-5.3-3.2-14.5-7.5-19.2-14-1.2 4.8-0.8 8.6 1.8 13.3z"/>
  <path class="cls-0" d="m43.6 21.1c-7.5-2.4-21.5-7-30.2-15.9-0.8 7.7 2.2 14.9 12 20.2-2.9-0.4-6.8-1.8-9.7-3.4 1.4 7.5 6.9 13.4 17.9 15.6-2.2 0.3-5.2 0.3-8.5-0.2 3.3 5.1 9.3 9.5 21.9 9.8-5.1 6.4-13.9 12-26.6 15.4 3.2 2.5 7.6 5.3 13.1 5.4 3.4 0.1 6.9-2 10-5.4 12.9 0.6 25.3-3.1 30.4-16.7 2.2-5.5 2.7-9.4 6-12.7 1.7-1.6 4.3-3.2 7.2-2.9-1-1.7-3.5-2.8-6.7-3-2.3-2.2-5.5-3.4-9-2.6-4.5 0.8-7.3 3.5-10 6.9-1 1-1.3 3.9-1.3 3.9-1.5-4.4-6.1-11.3-16.5-14.4z"/>
</svg>